<?xml version="1.0" encoding="UTF-8"?>
<svg version="1.1" viewBox="0 0 2000 2000" width="1280" height="1280" xmlns="http://www.w3.org/2000/svg">
<path transform="translate(528,683)" d="m0 0h33l29 4 21 6 16 7 20 10 12 8 13 11 11 11 12 17 9 16 5 12 8 27 5 25 3 31 1 32 8-8 15-11 13-6 19-5 18-3h24l24 3 23 5 16 8 10 6 13 10 12 12 11 15 9 16 9 20 6 25 1 10v15l-4 13-4 8-7 9-13 10-15 8-12 4-17 3-148 1 4 17 5 13 7 12 9 10 10 6 19 9 12 3 10 1h16l17-2 19-5 20-9 11-8 10-9 9-11 2-3 5 1 11 8 10 10 10 14 6 12 4 10v6l-10 16-19 19-18 13-16 8-33 11-17 3-11 1h-28l-17-2-19-5-21-8-11-6-10-8-12-12-9-14-12-27v-2h-3l-1 6-10 16-10 13-13 13-13 9-10 6-15 6-25 5-8 1h-13l-21-3-13-4-10-6-11-9-11-11-2-1v232l-23 7-35 10-65 19h-3l-1-93v-512l2-22 4-22 7-21 11-23 11-16 12-14 11-10 14-9 15-9 20-8 20-5zm24 116-13 4-11 8-7 10-5 12-2 9-2 27v219l2 19 3 12 6 11 7 8 7 5 10 4 5 1h20l12-3 11-6 7-7 6-10 4-13 2-16v-242l-3-19-5-12-7-9-7-6-12-5-5-1zm251 126-14 3-16 7-9 7-8 7-9 11-7 14-5 25v6h164l-1-14-4-15-8-16-12-14-5-5-9-6-11-5-14-4-8-1z" fill="#236466"/>
<path transform="translate(1468,403)" d="m0 0 2 1 1 65 14 7 24 11 26 12 19 10 23 11 2 3v78l-1 2-46 20-25 9-34 14-30 14-16 6h-2v83l21 10 22 12 16 8 21 9 15 6 14 7 7 4 21-1h21l19 2 18 4 18 6 20 9 20 12 16 13 12 12 13 18 11 21 9 25 5 22 3 21 1 25 1 296-1 1h-66v20h27l1 2v8l-2 2h-25l-1 12-1 1h-11l-1-1-1-43h-167l-1 5-8 19-7 13-9 14-9 12-8 10-3 4h-2l-1 3-8 7-10 10-14 11-17 12-15 9-19 11-23 9-24 8-21 5-19 3-26 2h-54l-25-2-24-4-30-8-15-5-17-4h-22l-16 4-10 5-18 14-8 9-6 13-3 13v19l-3 3-7 4-6-1-19-10-17-9-22-13-5-3 1-4 19-14 14-9 27-15 25-12 28-11 23-6 13-2h17l21 6 19 7 29 7 36 6 22 2h40l21-2 37-7 29-9 18-8 26-14 19-13 16-12 11-9 11-12 13-17 16-24 12-22 5-8h170l1-1 65-1-1-294-1-21-4-26-7-27-11-26-7-13-13-15-13-13-17-12-10-6-18-8-16-5-17-3-9-1h-32l-16 2h-7l-1-5 1-3-14-1-111-1v21l7-1h96l1 1v16l21-8 20-4h40l18 3 18 6 23 12 14 11 7 7 6 5 9 11 9 15 7 16 5 18 5 32 1 14 1 247v37l-1 1h-152l-1-1-1-289-3-7-3-2-9 1-4 6-1 291-1 1-57 1-5 14-7 13-7 11-13 22-9 11-14 15-8 8-11 9-10 7-16 9-15 9-21 9-21 7-25 6-22 4-20 2h-37l-26-3-23-4-28-7-23-8-18-6-5-1h-10l-25 4-22 6-27 10-25 11-22 12-11 7-15 10-17 10-10 7-14 11-13 11-10 9-10 11-3 4-5-1-31-16-44-24-13-8 2-4 12-11 7-9 16-16 11-9 11-10 17-13 15-11 14-9 23-13 19-10 20-9 27-10 23-6 9-2-11-10-10-8-13-11-8-7-10-10-8-7-10-10-2-1v-3l14-8 5 1 7 9 14 15 11 10 15 11 14 11 18 14 16 12 7 6 22 14 17 10 21 11 21 8 19 7 21 6 26 5 26 3h46l19-2 25-5 19-5 20-7 25-11 17-11 12-9 12-11 13-13 9-11 10-14 8-14 12-25 5-14 2-2h52v-212l1-64 3-9 7-8 8-4h17l6 3 7 8 2 5 1 9v273l88-1h35v-55l-1-217-2-17-5-25-6-17-8-17-9-13-7-8-19-14-21-11-15-5-18-3h-37l-16 3-16 5-14 8-8 7h-2l-2-28h-85l-2-1v51l-5-3v-2l-4-2-9-7-17-9-7-6v-27l6-7 5-4 12-17 8-17 4-16 2-20v-18l-2-16-5-15-8-15-11-12-10-8-16-7-2-6-2-13-4-13-8-14-10-14-11-11-5-4v-2l35-15 23-10 25-11 25-9 36-14 1-6 1-96-13 5-40 17-30 12-28 11-58 25-32 14-36 15-24 11-24 9-19 7-27 12-21 10-7 3h-4l-1-70-13 5-30 13-31 14-29 11-30 13-4 2-1 170-5 3-24 10-43 19-22 11-19 8-1 1-1 65-24-2h-14l-17 2-19 5-15 6-5 3h-3l-4-33-5-26-6-19-10-23-12-22-10-13-13-13-18-13-15-10-15-8-16-7-22-7-27-5-11-1h-28l-24 3-17 4-18 6-16 8-19 12-18 14-10 9-13 16-10 17-8 17-7 26-4 22-3 29-1 631 27-9 34-9 30-7 49-14 27-7h3l-1-163v-41l2-3 12 6 15 4 7 1h32l20-4 16-6 17-8 20-12 20-18 4-6h2l7 12 9 12 11 9 15 10 15 8 20 7 18 4 8 1h45l19-3 24-7 21-9 31-19 12-11 11-13 4-6 3 1 9 17 9 12 11 10 15 11 15 8 17 6 18 4 10 1h12l19-3 14-5 12-8 10-9 9-13 4-11 4 4 4 6v2h2l7 8 9 9 13 10 19 11 13 5 23 5 26 2 19-1 20-3 21-6 16-7 13-8 13-11 4-5 5-5 2-3 2 1-7 14-9 13-7 9-10 8-15 8-17 6-16 4-13 2-12 1h-22l-19-2-17-4-17-6-19-10-13-9-10-9-9-9-13 13-13 9-16 8-12 3-13-1-29-8-42-12-27-7-16-16-9-11-5 1-14 13-14 10-18 11-17 8-27 9-20 4-18 2h-25l-17-2-23-5-20-7-21-11-16-12v-2l-3-1-9-11-4-4-6 1-16 13-18 11-19 9-18 6-14 3-9 1h-32l-19-3 1 193-5 3-24 7-43 10-48 14-52 15-26 8h-4l-1-85v-553l2-29 3-24 4-17 8-24 8-19 7-15 7-11 8-10 8-7 9-9 14-11 10-7 17-10 16-8 16-6 21-5 23-3h34l25 3 25 6 16 6 21 10 17 10 14 10 16 13 12 11 13 18 11 18 8 16 9 24 5 21 3 17 1 11 13-5 12-3 14-2h20l10 1-1-25v-30l3-3 25-11 29-14 30-13 24-10 4-2 1-170 13-6 37-15 41-18 37-17 30-12 7-3h3v71l6-2 18-8 27-10 42-18 34-15 39-16 29-13 27-11 24-8 20-9 32-14 43-18 16-7z" fill="#C87C41"/>
<path transform="translate(1429,859)" d="m0 0h50l4 15 7 30 3 3 2-5 7-12 11-12 14-8 18-6 5-1h43l19 4 20 8 11 7 14 14 9 14 6 13 5 15 5 25 1 8 1 253-1 1h-82l-1-240-1-18-3-13-5-10-9-8-11-4-6-1h-20l-13 4-9 6-6 8-5 11-2 13-1 250-1 1-44 1-10 30-8 17-8 13-10 13-11 14-9 10-7 7-11 9-18 13-14 8-20 8-20 6-24 4-25 3h-48l-31-4-23-4-21-6-21-9-16-8-19-10-13-8-17-11-18-13-9-8-17-12-13-11-8-7-13-12-6-7 2-1 57 13 39 12 29 10 27 9 37 12 19 5 22 4 18 2h37l24-3 25-6 16-6 22-11 11-7 10-9 9-12 9-11 16-24 11-20 8-16 3-9 1-7z" fill="#C87C40"/>
<path transform="translate(1072,533)" d="m0 0h3v233h15l3 9 5 16 8 15 10 12 11 8v2h-52l1 280 4 13 9 10 10 6 8 2h12l10-4 4-3h2v67l-4 8-9 8-10 5-9 3-13 2h-18l-14-2-16-5-19-9-11-8-11-12-11-18-7-17-4-15-3-16-1-23v-272h-114l-1-4v-28l3-3 21-9 26-12 6-3 5-3h54v-191l16-8 31-14 26-11 20-7z" fill="#246466"/>
<path transform="translate(1417,822)" d="m0 0h96l1 1v16l21-8 20-4h40l18 3 18 6 23 12 14 11 7 7 6 5 9 11 9 15 7 16 5 18 5 32 1 14 1 247v37l-1 1h-152l-1-1-1-289-3-7-3-2-9 1-4 6-1 291-1 1-57 1-5 14-7 13-7 11-13 22-9 11-14 15-8 8-11 9-10 7-16 9-15 9-21 9-21 7-25 6-22 4-20 2h-37l-26-3-23-4-28-7-23-8-18-6-5-1h-10l-25 4-22 6-27 10-25 11-22 12-11 7-15 10-17 10-10 7-14 11-13 11-10 9-10 11-3 4-5-1-31-16-44-24-13-8 2-4 12-11 7-9 16-16 11-9 11-10 17-13 15-11 14-9 23-13 19-10 20-9 27-10 23-6 9-2-11-10-10-8-13-11-8-7-10-10-8-7-10-10-2-1v-3l14-8 5 1 7 9 14 15 11 10 15 11 14 11 18 14 16 12 7 6 22 14 17 10 21 11 21 8 19 7 21 6 26 5 26 3h46l19-2 25-5 19-5 20-7 25-11 17-11 12-9 12-11 13-13 9-11 10-14 8-14 12-25 5-14 2-2h52v-212l1-64 3-9 7-8 8-4h17l6 3 7 8 2 5 1 9v273l88-1h35v-55l-1-217-2-17-5-25-6-17-8-17-9-13-7-8-19-14-21-11-15-5-18-3h-37l-16 3-16 5-14 8-8 7h-2l-2-28h-85l-3-9v-5l2-2z" fill="#266667"/>
<path transform="translate(1275,891)" d="m0 0h17l23 3 20 6 16 8 10 6 11 9 13 18 12 22 5 16 3 15 1 10v124l-2 15-5 19-6 14-9 14-12 16-10 8-14 9-15 7-16 5-16 3-9 1h-28l-21-3-21-7-11-6-15-11-8-6-9-10-9-14-10-21-5-17-2-13v-127l3-18 6-21 12-21 10-13 9-9 12-9 11-8 20-8 17-4zm-5 68-13 4-8 6-5 6-5 10-3 16-1 14v113l3 17 4 11 5 7 9 6 11 4 8 1h12l12-3 11-6 8-9 4-10 2-9 1-9v-128l-3-16-6-12-7-7-12-5-4-1z" fill="#C87C41"/>
<path transform="translate(1318,465)" d="m0 0 4 2 9 6-3 3-24 10-36 16-29 12-28 12-20 9-25 9-20 8-48 22h-4l-1-70-13 5-30 13-31 14-29 11-30 13-4 2-1 170-5 3-24 10-43 19-22 11-19 8-1 1-1 65-24-2h-14l-17 2-19 5-15 6-5 3h-3l-4-33-5-26-6-19-10-23-12-22-10-13-13-13-18-13-15-10-15-8-16-7-22-7-27-5-11-1h-28l-24 3-17 4-18 6-16 8-19 12-18 14-10 9-13 16-10 17-8 17-7 26-4 22-3 29-1 631 27-9 34-9 30-7 49-14 27-7h3l-1-163v-41l2-3 12 6 15 4 7 1h32l20-4 16-6 17-8 20-12 20-18 4-6h2l7 12 9 12 11 9 15 10 15 8 20 7 18 4 8 1h45l19-3 24-7 21-9 31-19 12-11 11-13 4-6 3 1 9 17 9 12 11 10 15 11 15 8 17 6 18 4 10 1h12l19-3 14-5 12-8 10-9 9-13 4-11 4 4 4 6v2h2l7 8 9 9 13 10 19 11 13 5 23 5 26 2 19-1 20-3 21-6 16-7 13-8 13-11 4-5 5-5 2-3 2 1-7 14-9 13-7 9-10 8-15 8-17 6-16 4-13 2-12 1h-22l-19-2-17-4-17-6-19-10-13-9-10-9-9-9-13 13-13 9-16 8-12 3-13-1-29-8-42-12-27-7-16-16-9-11-5 1-14 13-14 10-18 11-17 8-27 9-20 4-18 2h-25l-17-2-23-5-20-7-21-11-16-12v-2l-3-1-9-11-4-4-6 1-16 13-18 11-19 9-18 6-14 3-9 1h-32l-19-3 1 193-5 3-24 7-43 10-48 14-52 15-26 8h-4l-1-85v-553l2-29 3-24 4-17 8-24 8-19 7-15 7-11 8-10 8-7 9-9 14-11 10-7 17-10 16-8 16-6 21-5 23-3h34l25 3 25 6 16 6 21 10 17 10 14 10 16 13 12 11 13 18 11 18 8 16 9 24 5 21 3 17 1 11 13-5 12-3 14-2h20l10 1-1-25v-30l3-3 25-11 29-14 30-13 24-10 4-2 1-170 13-6 37-15 41-18 37-17 30-12 7-3h3v71l6-2 18-8 27-10 42-18 34-15 39-16 29-13z" fill="#266667"/>
<path transform="translate(289,746)" d="m0 0 1 2-11 18-9 15-9 17-7 19-5 18-4 23-2 23v105l3 7 15 16 19 19 1 3v549l17-5 33-10 40-12 31-9 42-11 44-14 21-6 1-42 1-2 26-7 19-5 12-2v-111l23-4 20-6 19-9 15-9 1-26h3l7 10 7 9 9 9 15 10 17 9 14 5 21 5 13 2 12 1h30l18-2 38-8 13-1 10 5 5 4-2 4-18 12-23 14-13 10-11 9-15 14-7 7-7 8-15 16-11 12-9 10-10 13-9 12-10 16-10 19 1 4 16 8 20 8 18 8 26 12 29 14 36 16 8 3 9-16 6-12 8-10 9-8h8l15 5 30 14 21 11 4-2 11-14 11-12 8-7 19-14 17-12 13-9 20-13 8-1 26 8 32 8 24 4 36 4h55l28-3 34-7 25-7 25-9 29-14 25-14 20-12 14-10 13-12 4-2-6 7-14 13-20 13-15 9-23 13-27 13-28 10-26 7-34 7-28 3-18 1h-28l-30-2-28-4-32-7-28-8-11-3-16 10-14 10-14 11-13 9-8 6-14 12-12 13-18 22-16-8-21-10-16-8-19-8-5 1-8 11-12 21-8 12-2 4-6-1-24-11-29-13-31-15-28-13-36-16-14-6-1-2 6-11 12-20 10-16 11-14 11-13 12-11 20-20 8-7 8-8 6-5 5-5 13-12 13-10 15-10 30-19-12-4-2-1h-9l-43 8-16 2-14 1h-22l-19-2-19-4-18-6-16-8-14-9-12-11-2-2-2 9-14 8-19 10-20 7-18 4-1 106-7 3-31 9-15 5h-3v45l-29 9-67 19-46 14-30 10-59 18-22 7h-2l-1-5v-90l-1-467-9-10-8-8-7-8-8-8-3-4-1-4-1-82 2-31 5-27 7-25 8-20 11-21 16-25zm567 598 4 2 7 2 3-1-4-3zm15 5-2 3 3-1z" fill="#A09B8D"/>
<path transform="translate(411,666)" d="m0 0 2 1-16 10-17 11-14 12-11 9-9 7-1 2h-2l-2 4-9 10-9 13-9 15-12 23-7 17-4 18-3 18-2 22v99l7 11 11 12 8 8 7 8 4 4 1 4v522l17-5 53-16 95-27h2v22l-24 8-56 17-51 15-35 9-23 7h-2l-1-59v-475l-9-11-12-14-9-9-8-11v-85l2-31 3-20 5-20 7-21 8-16 8-17 8-12 10-13 9-10 7-8 10-10 15-11 17-13 14-10 22-12z" fill="#C87E44"/>
<path transform="translate(555,819)" d="m0 0h15l9 3 6 5 5 11 2 8 1 13v229l-2 16-3 10-5 8-5 4-8 2h-16l-9-3-4-5-5-15-2-16v-228l1-14 4-13 3-6 4-5z" fill="#C87D41"/>
<path transform="translate(1514,1311)" d="m0 0h134l1 1 1 23-1 1-125 1-14 23-9 12-24 28-28 28-14 11-14 10-16 9-38 19-26 10-28 8-31 6-23 3-16 1h-31l-30-2-28-4-30-7-34-10-11-4-7 1-9 4-16 9-13 10-7 4-1-1 1-13 4-12 6-9 6-8 9-5 13-4 11-2 15 1 36 9 23 6 23 4 29 3 18 1h26l30-2 33-6 35-9 20-6 16-8 19-10 13-8 16-11 10-8 10-9 21-21 18-22 12-18 12-23z" fill="#C87D42"/>
<path transform="translate(1434,451)" d="m0 0h4v62l-12 6-41 17-21 8-70 29-6 2-16-5-12-3h-3l9 3 1 3-16 4-9 6-3 1-2 4-7 9-4-4-6-7v-2l-18-9-7-1h-19l-13 3-17 9-11 9-8 10-11 23-4 15-2 23-2 7-9 4h-3l-1-6v-76l3-3 21-9 19-9 39-17 28-11 8-4 18-6 40-17 20-9 27-12 52-22 15-7 19-8z" fill="#246466"/>
<path transform="translate(1498,1282)" d="m0 0h171l-1 3h-2l2 7h-167l-1 5-8 19-7 13-9 14-9 12-8 10-3 4h-2l-1 3-8 7-10 10-14 11-17 12-15 9-19 11-23 9-24 8-21 5-19 3-26 2h-54l-25-2-24-4-30-8-15-5-17-4h-22l-16 4-10 5-18 14-8 9-6 13-3 13v19l-3 3-7 4-6-1-19-10-17-9-22-13-5-3 1-4 19-14 14-9 27-15 25-12 28-11 23-6 13-2h17l21 6 19 7 29 7 36 6 22 2h40l21-2 37-7 29-9 18-8 26-14 19-13 16-12 11-9 11-12 13-17 16-24 12-22z" fill="#7E998F"/>
<path transform="translate(1238,754)" d="m0 0h13l16 4 13 7 9 7 9 11 11 11 12 16 4 10 2 10-1 15-4 11-6 8-7 6-12 3h-11l-16-4-12-4h-14l-26 12-11 7-10 4-14 2-10-2-8-6-5-10-1-11 3-18 8-22 11-21 7-10 9-10 7-8 10-9 12-6z" fill="#246466"/>
<path transform="translate(1094,848)" d="m0 0h39l6 1 2 23 5 13 7 11 10 9 14 7-1 3-8 7-8 9-8 13-8 16-4 10-4 17-2 21-1 102-6 9-6 3h-12l-6-3-5-5-4-9-1-7v-249z" fill="#C87D42"/>
<path transform="translate(289,746)" d="m0 0 1 2-11 18-9 15-9 17-7 19-5 18-4 23-2 23v105l3 7 15 16 19 19 1 3v489l-3 1-2 7-3-1v2l3 1-1 13-1 4h2l-1 10-2 3-1 12-1 14 2 4h9l10-2 4 2-10 4-19 6h-2l-1-5v-90l-1-467-9-10-8-8-7-8-8-8-3-4-1-4-1-82 2-31 5-27 7-25 8-20 11-21 16-25z" fill="#BCAD94"/>
<path transform="translate(1317,437)" d="m0 0 6 1 9 4-4 4-36 14-82 34-15 7-64 27-7 2-1-71-12 3-27 11-30 13-28 13-33 14-32 14-16 8-24 9v169l-8 4-28 12-32 15-37 16-9 4h-2l1 6 1 42-1 1-31 4h-7l-2-8-4-19-8-26-11-23-10-16-8-10-12-12-9-11-8-7-12-10-10-7 3-1 19 12 14 12 11 11 8 7 11 11 11 15 10 18 5 11v2h2v-14l2-4 7-2v58l14-4 1-43 16-8 25-11 35-15 20-9 16-6 1-1 1-134 2-3 1-27 9-4 38-16 20-9 43-18 27-12 38-16 23-9 23-8 4 1v61l13-5 56-24 19-9 32-13 30-11 15-7z" fill="#C87F46"/>
<path transform="translate(760,1479)" d="m0 0 8 3 14 9 18 10 16 8 33 17 19 9h3l10-13 15-15 11-9 4-3 6 1 21 12 18 10 5 4 1 34-2 1-14-8-14-6-20-6-5-1h-13l-11 4-9 6-11 14-6 10-2 5-9-3-33-15-29-14-25-10-23-10-4-2 2-5 13-22 9-12z" fill="#B6CEB6"/>
<path transform="translate(1534,802)" d="m0 0 7 3 21-1h21l19 2 18 4 18 6 20 9 20 12 16 13 12 12 13 18 11 21 9 25 5 22 3 21 1 25 1 296-1 1h-66v20h27l1 2v8l-2 2h-25l-1 12-1 1h-11l-1-1v-44h-2l-1-6 2-1 1-3 65-1-1-294-1-21-4-26-7-27-11-26-7-13-13-15-13-13-17-12-10-6-18-8-16-5-17-3-9-1h-32l-16 2h-7l-1-5 1-3-3-1z" fill="#C88046"/>
<path transform="translate(688,1231)" d="m0 0h2l1 3v26l4 13 8 11 11 8 16 8 17 6 24 4 11 1h30l28-3 24-5 20-6 5 1 9 7 19 13 9 7-4 3-23 11-5-2-17-12-8-4-13 1-42 9-19 2h-30l-24-3-20-5-12-5-14-8-13-10-8-8-7-10-4-10-2-10-31 15-21 7-23 4-18 1-1-1v-16l1-1 30-2 22-4 20-7 20-9 15-10z" fill="#C87D42"/>
<path transform="translate(868,1353)" d="m0 0h3l-2 4-19 12-18 11-16 13-8 7-10 9-9 9-7 8-15 16-11 12-9 10-10 13-9 12-10 16-10 19 1 4 16 8 20 8 18 8 26 12 29 14 36 16 8 3 9-16 6-12 8-10 9-8h8l15 5 30 14 21 11 4-2 11-14 11-12 8-7 19-14 17-12 13-9 20-13 8-1 26 8 32 8 24 4 36 4h55l28-3 34-7 25-7 25-9 29-14 25-14 20-12 14-10 13-12 4-2-6 7-14 13-20 13-15 9-23 13-27 13-28 10-26 7-34 7-28 3-18 1h-28l-30-2-28-4-32-7-28-8-11-3-16 10-14 10-14 11-13 9-8 6-14 12-12 13-18 22-16-8-21-10-16-8-19-8-5 1-8 11-12 21-8 12-2 4-6-1-24-11-29-13-31-15-28-13-36-16-14-6-1-2 6-11 12-20 10-16 11-14 11-13 12-11 20-20 8-7 8-8 6-5 5-5 13-12 13-10 15-10 19-12z" fill="#9D9B8D"/>
<path transform="translate(1185,624)" d="m0 0h12l10 3 5 6 8 16 4 13 3 16 1 8v22l-3 15-6 12-9 10-7 3h-11l-9-4-7-6-6-10-4-8-5-15-2-11-1-12v-14l2-16 4-11 6-9 5-4z" fill="#246466"/>
<path transform="translate(1080,1411)" d="m0 0h17l21 6 10 4 1 2-10-2-8-2-6 3-1 7 1 4 4 1 1 5-8-1-10-2h-22l-16 4-10 5-18 14-8 9-6 13-3 13v19l-3 3-7 4-6-1-19-10-17-9-22-13-5-3 1-4 19-14 14-9 27-15 25-12 28-11 23-6z" fill="#7E998F"/>
<path transform="translate(1263,624)" d="m0 0h14l9 3 5 5 6 10 5 16 2 18v16l-2 16-4 12-6 11-8 7-5 2-13 1-10-3-8-7-6-12-3-12-1-9v-29l3-18 5-13 6-8 5-4z" fill="#246466"/>
<path transform="translate(1267,590)" d="m0 0h10l12 3 11 6 13 11 11 14 6 12 4 16 1 9v15l14 1 12 5 8 6 6 7 8 14 4 10 3 17v20l-3 19-4 12-8 16-9 10-10 6-3 2-1 34-4 18 11 2 16 8 13 10 10 9 8 10 4 7 1 11v13l-5-4-8-12-11-13-12-12-10-7-16-8-18-6-7-2 1-3 8-7 5-10 4-15 1-6v-14l-1-8 9-3 10-6 6-5 6-10 4-8 4-14 2-21-2-22-6-16-5-7v-2h-2v-2l-4-2-8-5-11-3h-12l-12 3-1-1-1-33-3-15-5-12-6-9-8-8-11-7-10-2h-9l-12 3-9 6-5 6h-2l1-10 4-8 4-5 8-5z" fill="#296768"/>
<path transform="translate(1277,977)" d="m0 0h9l8 3 7 8 3 8 1 9v121l-2 14-5 8-6 5-6 2h-11l-9-3-6-7-4-12-1-14v-95l1-26 4-11 8-7zm2 15-7 6-1 3v128l3 7 5 4h6l3-2 2-8v-130l-3-7-2-1z" fill="#296768"/>
<path transform="translate(1206,545)" d="m0 0 10 3 31 11 16 6 7 3-4 1-10-3 10 4 1 3-16 4-9 6-3 1-2 4-7 9-4-4-6-7v-2l-18-9-7-1h-19l-13 3-17 9-11 9-8 10-11 23-4 15-2 23-2 7-9 4h-3l-1-6v-76l3-3 21-9 19-9 39-17 28-11z" fill="#B5CDB4"/>
<path transform="translate(1332,707)" d="m0 0h13l9 3 7 6 5 11 2 8 1 9v11l-2 16-5 13-7 8-10 6-4 1h-11l-8-3-10-9-4-10-1-5v-27l3-14 5-12 7-8z" fill="#246466"/>
<path transform="translate(1127,717)" d="m0 0h7l11 4 7 6 7 11 5 11 4 15 1 10v9l-3 10-5 9-7 6-8 3h-13l-6-4-7-8-8-16-4-18-1-7v-14l3-12 6-9 8-5z" fill="#246566"/>
<path transform="translate(289,746)" d="m0 0 1 2-11 18-9 15-9 17-7 19-5 18-4 23-2 23v105l3 7 15 16 19 19 1 7-1 125v4l-4 4-1-13v-16l-1-16-1-27v-34l-1-7-1-16-1-3-4-3-3-2h-3l1 2-4-2-11-11-7-8-8-8-3-4-1-4-1-82 2-31 5-27 7-25 8-20 11-21 16-25z" fill="#9F9A8C"/>
<path transform="translate(814,943)" d="m0 0 14 1 16 4 14 8 10 9 4 7 3 8v3l-4 1h-103l-9-1-1-2 8-16 4-5 13-9 11-5 7-2z" fill="#C87D43"/>
<path transform="translate(888,1087)" d="m0 0 8 1-6 8-14 11-9 6-12 5-17 4h-28l-16-4-11-6-10-8-7-7-5-7v-2z" fill="#C87C41"/>
<path transform="translate(279,1517)" d="m0 0 2 3v60l17-5 33-10 40-12 31-9 42-11 44-14h7l1 3v3l3 1 2 2-10 4-67 19-46 14-30 10-49 15-10-1-10 2h-6l-2-2-1-7 1-14 2-10 2-7 1-4h-2v-7l1-2-2-1h2v-7l-2-1v-2l3-1z" fill="#A09C8D"/>
<path transform="translate(349,738)" d="m0 0 1 2-11 23-5 14-5 19-4 26-1 13-1 36v85l-1 9-4-2-14-14v-86l1-19 4-24 5-19 10-24 11-19 13-19z" fill="#B5CEB5"/>
<path transform="translate(862,849)" d="m0 0h93l1 1v75l-3-1-13-19-9-11-10-10-10-7-26-14-22-10z" fill="#C87D42"/>
<path transform="translate(1179,591)" d="m0 0h16l11 4 5 4 9 14 2 4-1 3-10-8-8-4-4-1h-18l-10 3-11 7-8 8-6 10-3 9-2 11v30l3 18-11-1h-10l-11 3-11 7-3 4h-2l-1-2v-14l4-5 12-6 8-2h8l-1-5v-34l4-16 8-14 11-12 9-7 10-5z" fill="#286768"/>
<path transform="translate(760,1479)" d="m0 0 8 3 14 9-1 4h3v2l3 1 2 5 9 7 5 6 2 5 6 9-2 6-3 1-1 4-8 2-10-1-1 2-27-11-23-10-4-2 2-5 13-22 9-12z" fill="#FCFCFC"/>
<path transform="translate(911,1495)" d="m0 0 6 1 21 12 18 10 5 4 1 34-2 1-14-8-14-6-20-6-5-1h-13l-11 4-6-1 1-7-1-5 9-10 10-10 11-9z" fill="#7E998F"/>
<path transform="translate(1467,1431)" d="m0 0 2 1-12 12-11 9-17 11-15 9-23 13-27 13-28 10-26 7-34 7-28 3-18 1h-28l-30-2-28-4-32-7-28-8-11-3-16 10-14 10-14 11-13 9-8 6-14 12-12 13-9 11-6 8-3-1v-3h2l1-3h2l1-5 10-12 9-11 14-13 14-10 18-13 16-11 20-13 8-1 26 8 32 8 24 4 36 4h55l28-3 34-7 25-7 25-9 29-14 25-14 20-12 14-10 13-12z" fill="#829D91"/>
<path transform="translate(1080,1411)" d="m0 0h17l21 6 10 4 1 2-10-2-8-2-6 3-1 7 1 4 4 1 1 5-8-1-10-2h-22l-16 4-10 5-12 9h-2l-1-4 4-1 1-7 2-5-5-2-2-1-3 1-6-2-1 2-5 1-7 1-3 1 1-3 28-12 21-7 19-4z" fill="#286768"/>
<path transform="translate(709,1251)" d="m0 0 9 6 17 10 20 8 25 6 18 3 26 1 20-1 23-3 21-5 6-1-3 3-21 7-21 4-26 3-18 1h-15l-31-3-16-3-12-5-11-7-7-8-3-7z" fill="#AFC9B1"/>
<path transform="translate(894,1551)" d="m0 0h8l15 5 30 14 23 12-1 4-3 3h-2l2 5-3 2-27-14-34-16-10-4-5 1-8 11-12 21-2 3h-2l2-6 8-16 7-11 9-10z" fill="#9C9B8D"/>
<path transform="translate(868,1353)" d="m0 0h3l-2 4-19 12-18 11-16 13-8 7-10 9-9 9-7 8-15 16-11 12-9 10-10 13-9 12-10 16-4 7-5 1 2-7h-2v-2l-3 1 2-5 8-13 11-14 11-13 12-11 20-20 8-7 8-8 6-5 5-5 13-12 13-10 15-10 19-12z" fill="#9D9C8E"/>
<path transform="translate(1552,1282)" d="m0 0h117l-1 3h-2l2 7h-129l-14-1 3-4h7v-2l8-1 2 1v2h2l1-2 3-1h10l5 1 8-1-22-1z" fill="#9F9F90"/>
<path transform="translate(275,1354)" d="m0 0 5 1 1 87v64l-2 2-1-5-2-1v-8l-4-2-1-1-1-15v-12l1-12 1-4-1-2 1-4v-24l1-8-1-3 1-7-1-6 1-5-1-5 1-1v-7l1-8z" fill="#9E9A8C"/>
<path transform="translate(627,1293)" d="m0 0h4v12l-4 5-18 8-21 6-15 3h-6v-18l6-2 24-4 15-4 13-5z" fill="#C87E43"/>
<path transform="translate(1749,905)" d="m0 0 3 4 8 24 6 27 2 20 1 32v66l-1 212h-2l-1-17-1-298-1-16-6-28-6-18-2-5z" fill="#C7BAA5"/>
<path transform="translate(1467,1431)" d="m0 0 2 1-12 12-11 9-17 11-15 9-23 13-27 13-28 10-26 7-34 7-28 3-18 1h-28l-20-1v-2l-3-2 2-1h71l28-3 34-7 25-7 25-9 29-14 25-14 20-12 14-10 13-12z" fill="#B58E66"/>
<path transform="translate(1153,1273)" d="m0 0h7l15 7 22 7 24 4 26 3 16 1h17l15-1-4 2-19 3h-44l-27-4-40-9-20-7 1-2z" fill="#C6814A"/>
<path transform="translate(859,1339)" d="m0 0 7 1 8 5 4 3-2 4-5 3v-2l-13-3-4-2h-9l-43 8-16 2-14 1h-21v-1l10-1-6-3v-2l-2-1 11-1h30l18-2 38-8zm-3 5 4 2 7 2 3-1-4-3zm15 5-2 3 3-1z" fill="#B9A88F"/>
<path transform="translate(519,1467)" d="m0 0h3l1 4v7h-3v45l-16 5-9-1-1-4 1-4-3-1 17-5 1-42 1-2z" fill="#BCAD94"/>
<path transform="translate(890,1275)" d="m0 0 4 1-8 4-20 6-25 4-18 2-18 1h-15l-23-2-2-2 12-2v-2l2-1-6-2v-1h7l18 3 26 1 20-1 23-3 21-5z" fill="#849F93"/>
<path transform="translate(1078,1498)" d="m0 0 7 1 35 10 27 6 38 5 12 1v1h-17l3 2-1 1h-10l-28-4-32-7-28-8-6-6z" fill="#B9A387"/>
<path transform="translate(738,1542)" d="m0 0 10 3 39 18 22 11 2 3 2 2v3l-4-1v-2h-9l-3-1h-4v-2l-7-2-3-3h-4v-2h-3v-2l-5-2-2-1v-2l-8-1-5-6-5-1-4-2-7-2-3-4z" fill="#839B90"/>
<path transform="translate(568,1446)" d="m0 0h1v7h3l1-2h3v10l-7 3-31 9-13 4h-3v-10l8-3 21-6 17-3z" fill="#A09D8E"/>
<path transform="translate(954,1054)" d="m0 0 2 1v41l-4-2-11-11-11-8 1-3 12-8z" fill="#C7824B"/>
<path transform="translate(707,1504)" d="m0 0h2v2h2l-1 6 3-1-1 5-4 8 1 4 11 6-1 2-15-2v-2l-3 2-1 6-9-3-3-3 6-11 11-18z" fill="#829C91"/>
<path transform="translate(925,1287)" d="m0 0 5 2 11 8 15 14v3l-7 1-4 1-14-11-13-10-4-4 9-3z" fill="#AEC7B0"/>
<path transform="translate(885,563)" d="m0 0 2 1v135l-3 1v-136z" fill="#638881"/>
<path transform="translate(1467,1431)" d="m0 0 2 1-12 12-11 9-17 11-15 9-23 13-27 13-28 10-10 3-8-1 4-2 29-9 24-10 24-12 19-11 20-12 14-10 13-12z" fill="#BAA58A"/>
<path transform="translate(805,1349)" d="m0 0h6l-2 1 1 2 3 2-27 4-14 1h-21v-1l10-1-6-3v-2l-2-1 11-1h30z" fill="#B9AB93"/>
<path transform="translate(868,1353)" d="m0 0h3l-2 4-19 12-18 11-16 13-8 7-10 9-7 7h-4l2-4 4-5 8-7 14-12 15-11 24-15 11-7z" fill="#38706F"/>
<path transform="translate(1749,905)" d="m0 0 3 4 8 24 6 27 2 20 1 40-1 2h-2l1 16h-2l-1-63-1-16-6-28-6-18-2-5z" fill="#C3C2AC"/>
<path transform="translate(725,1477)" d="m0 0 1 4-4 7 5 2-7 11-6 11-5 1 2-7h-2v-2l-3 1 2-5 8-13 6-8z" fill="#9E9D8E"/>
<path transform="translate(289,746)" d="m0 0 1 2-11 18-9 15-9 17-6 16-2-1v-2l-3 1-1-3 10-19 16-25z" fill="#BBAD94"/>
<path transform="translate(820,1582)" d="m0 0 9 1 23 10-1 4-7 3-2-1v-2h-5l-5-4-3-1v-2h-3v-2l-5-2-2-3z" fill="#829B90"/>
<path transform="translate(1078,1498)" d="m0 0 7 1 35 10 2 2-3 1-4-1-6 2-25-7-6-6z" fill="#B6AB94"/>
<path transform="translate(786,1414)" d="m0 0 1 2 3 1-9 10-14 15-5 1-3-3 11-11 8-7z" fill="#829D91"/>
<path transform="translate(740,1462)" d="m0 0 5 2-1 4-11 14-6 8-5-1v-3l3-6 2-5 8-4 2-4z" fill="#819B90"/>
<path transform="translate(886,637)" d="m0 0h1v62l-3 1v-62z" fill="#68857C"/>
<path transform="translate(1180,1521)" d="m0 0 20 1 2 1 24 1h14v2l-10 1h-28l-20-1v-2l-3-2z" fill="#407270"/>
<path transform="translate(1242,577)" d="m0 0 4 3-5 4h-2l-2 4-7 9-4-4-6-7v-2h5v-2l3-2 4 1v2l5-1 2-2 2-1z" fill="#B8AD95"/>
<path transform="translate(674,667)" d="m0 0 4 1 15 9 9 7 12 11 3 4-6 1-7-8-8-7-12-10-10-7z" fill="#BDAA90"/>
<path transform="translate(349,738)" d="m0 0 1 2-11 23-4 11-7 2-1-4 8-14 13-19z" fill="#88A295"/>
<path transform="translate(1467,1431)" d="m0 0 2 1-12 12-11 9-17 11-15 9-12 7-2-1v-2l18-10 20-12 14-10 13-12z" fill="#B7A184"/>
<path transform="translate(1314,1511)" d="m0 0h8v2l-35 8-6 1h-12l3-3 24-4z" fill="#718476"/>
<path transform="translate(1206,545)" d="m0 0 10 3 31 11 16 6 7 3-4 1-13-5-20-7-8-3-12-2-4-1-4-2z" fill="#819C91"/>
<path transform="translate(886,1558)" d="m0 0 3 1-2 4-8 11-12 21-2 3h-2l2-6 8-16 7-11z" fill="#8DA597"/>
<path transform="translate(241,885)" d="m0 0h1v90h-1l-1-46-1-7v-16z" fill="#BDAD94"/>
<path transform="translate(1074,1497)" d="m0 0h5l1 4 3 2v2l-10-2-16 10h-3l2-4 4-4 11-7z" fill="#829B90"/>
<path transform="translate(568,1446)" d="m0 0h1v7h3l1-2h3v10l-7 3h-3l-1-6-3-2 6-1z" fill="#BCAD94"/>
<path transform="translate(1115,1510)" d="m0 0 6 1 3-1 9 3 4 4v1h-8l-17-4v-3z" fill="#859B8F"/>
<path transform="translate(279,1517)" d="m0 0 2 3v18l-3 3-3-1v-2l-2-1h2v-7l-2-1v-2l3-1z" fill="#9E9A8C"/>
<path transform="translate(898,1506)" d="m0 0 3 2v2l3-1-1 4 2 1-1 2 2 1-4 10-2 1-3-15-3-4z" fill="#9E9B8D"/>
<path transform="translate(1250,565)" d="m0 0 6 1 10 4 1 3-9 2h-8z" fill="#BCAF96"/>
<path transform="translate(1766,987)" d="m0 0h2l1 33-1 2h-2l1 16h-2v-29l1-9z" fill="#B8BDA4"/>
<path transform="translate(647,1289)" d="m0 0 5 5 6 10h-3l-1-1h-3-3l-2 2v-15z" fill="#BBAD95"/>
<path transform="translate(908,1554)" d="m0 0 7 1 34 16v2l-5-1-4-2-5-2-8-4v-2l-6-1-10-4-3-1z" fill="#839C91"/>
<path transform="translate(674,667)" d="m0 0 4 1 15 9 8 6-1 2-5-1-15-12-6-4z" fill="#B0A792"/>
<path transform="translate(1168,569)" d="m0 0 1 2 7 1v2l-13 3-6 3-6 1v-2l2-1 1-3h6l4-3 3-1z" fill="#B7B098"/>
<path transform="translate(867,1343)" d="m0 0h5l6 5-2 4-5 3v-2l-8-2 3-3 3-1zm4 6-2 3 3-1z" fill="#A49D8D"/>
<path transform="translate(1473,1338)" d="m0 0 4 2-2 4-7 10-3-1v-6l3-3 1-2h2z" fill="#9D9E8F"/>
<path transform="translate(1467,1431)" d="m0 0 2 1-12 12-11 9-12 8-3-1 4-3 13-9 13-11z" fill="#B0A590"/>
<path transform="translate(823,1347)" d="m0 0 9 1-4 3-10 2h-8l-1-3 3-2h11z" fill="#C38755"/>
<path transform="translate(1169,1520)" d="m0 0h16l12 1v1h-17l3 2-1 1h-10l-3-2z" fill="#9C8E72"/>
<path transform="translate(1206,545)" d="m0 0 10 3 12 4 1 2-8-1-11-1-5-3z" fill="#7E998F"/>
<path transform="translate(925,1287)" d="m0 0 5 2 11 8 6 7-4-2-6-5-5-2-3-2-6-1z" fill="#86A194"/>
<path transform="translate(859,1339)" d="m0 0 7 1 4 2v2l-4 1-15-2v-3z" fill="#B7A992"/>
<path transform="translate(321,932)" d="m0 0h1l1 13v11l-1 9-4-2v-3h2v-27z" fill="#89A497"/>
<path transform="translate(1335,1505)" d="m0 0h6l-2 3-13 4-8-1 4-2z" fill="#B19778"/>
<path transform="translate(227,981)" d="m0 0h1l1 14 5 5 3 9-6-5-3-4-1-4z" fill="#BCAF96"/>
<path transform="translate(890,1275)" d="m0 0 4 1-8 4-9 3h-6l2-3z" fill="#658D85"/>
<path transform="translate(280,1538)" d="m0 0h1v40h-1l-1-18v-11l-1-3 1-2-2-1z" fill="#BDAD94"/>
<path transform="translate(743,1284)" d="m0 0 10 1 11 3v2l-12-1-9-2z" fill="#8CA698"/>
<path transform="translate(411,666)" d="m0 0 2 1-16 10-4 2v-4l16-8z" fill="#C19B76"/>
<path transform="translate(947,1304)" d="m0 0 4 2 5 5v3h-6l-2-2z" fill="#849F93"/>
<path transform="translate(229,877)" d="m0 0h1l1 6-1 5-1 4h2l1 4-4 9h-1l1-22z" fill="#BCAE95"/>
<path transform="translate(1256,569)" d="m0 0h7l3 1 1 3-9 2h-5l3-4z" fill="#8AA597"/>
<path transform="translate(1353,1499)" d="m0 0h2l1 3-14 5-2-1-1-2z" fill="#B7AA92"/>
<path transform="translate(1133,1513)" d="m0 0 9 1 5 1v3l-13 1 2-2z" fill="#B2A891"/>
<path transform="translate(1668,1282)" d="m0 0v3h-2l2 7h-8l2-2 1-6-3-1z" fill="#BDAD94"/>
<path transform="translate(1161,574)" d="m0 0 4 1h-2v2l-6 3-6 1v-2l2-1 1-3h6z" fill="#9BA594"/>
<path transform="translate(1366,1494)" d="m0 0h3l-1 3-9 4h-4l1-3z" fill="#988B71"/>
<path transform="translate(1430,1460)" d="m0 0h2l-1 3-13 8-2-1 5-5z" fill="#B1906D"/>
<path transform="translate(908,1554)" d="m0 0 7 1 11 5v2l-5-1-10-4-3-1z" fill="#869E92"/>
<path transform="translate(1060,1505)" d="m0 0 4 2-5 5-5 1 2-4z" fill="#37706F"/>
<path transform="translate(1272,1519)" d="m0 0h12l-3 3h-12z" fill="#46716C"/>
<path transform="translate(1112,1439)" d="m0 0 13 1 1 3 2 2-6-1-10-3z" fill="#3F7573"/>
<path transform="translate(854,1344)" d="m0 0 13 3-4 4-7-2 1-2z" fill="#B7A992"/>
<path transform="translate(1314,1511)" d="m0 0h8v2l-10 2-1-1h-6v-1z" fill="#748576"/>
<path transform="translate(1445,1450)" d="m0 0h2l-1 3-12 8-3-1 4-3z" fill="#B7A58B"/>
<path transform="translate(850,1342)" d="m0 0 6 1-1 2 4 2-5 1-9-1v-1l6-1-4-2z" fill="#9E9A8C"/>
<path transform="translate(754,1276)" d="m0 0 8 1 9 2 1 2-16-2z" fill="#8CA698"/>
<path transform="translate(709,1251)" d="m0 0 12 8-1 2-6-3v-2l-4 1z" fill="#8AA497"/>
<path transform="translate(1767,1010)" d="m0 0 2 2v8l-1 2h-2v-11z" fill="#C3BEA9"/>
<path transform="translate(885,625)" d="m0 0 2 3v9l-3 1v-9z" fill="#668B84"/>
<path transform="translate(1311,1513)" d="m0 0 1 2-7 2h-7l3-3z" fill="#4C736C"/>
<path transform="translate(937,1308)" d="m0 0 4 1v2l6 1 1 4-5-1-6-5z" fill="#8EA89A"/>
<path transform="translate(955,900)" d="m0 0h1v25l-3-1v-2h2z" fill="#BDAD94"/>
<path transform="translate(1143,1517)" d="m0 0 10 1-1 3-13-1v-2z" fill="#386E6B"/>
<path transform="translate(489,1478)" d="m0 0h2v5h-5l-5-2 4-2z" fill="#BCAF96"/>
<path transform="translate(875,1347)" d="m0 0 3 1-2 4-5 3v-2l-2-1 4-1v-3z" fill="#ABA089"/>
<path transform="translate(1335,1505)" d="m0 0h6l-2 3-9 1 2-3z" fill="#BB8A5E"/>
<path transform="translate(869,1587)" d="m0 0 1 3-5 8h-2l2-6 2-4z" fill="#97AD9E"/>
<path transform="translate(722,1536)" d="m0 0 5 1 2 1-1 3-5 1z" fill="#859D91"/>
<path transform="translate(890,1275)" d="m0 0 4 1-8 4-6-1 4-2z" fill="#77998E"/>
<path transform="translate(1490,1408)" d="m0 0v3l-4 3 2-4z" fill="#B9AB93"/>
<path transform="translate(1746,898)" d="m0 0 3 4-1 3-2-4z" fill="#F5F4F1"/>
<path transform="translate(801,733)" d="m0 0 3 1-4 2-3-1z" fill="#C4B59F"/>
<path transform="translate(669,664)" d="m0 0 5 2-2 1z" fill="#ADC6AF"/>
<path transform="translate(1500,1397)" d="m0 0v3l-2 1z" fill="#BDAD94"/>
<path transform="translate(817,726)" d="m0 0 3 1-5 1z" fill="#BDAD94"/>
<path transform="translate(1470,1428)" d="m0 0 2 1-2 1z" fill="#BAB89F"/>
<path transform="translate(810,729)" d="m0 0 3 1z" fill="#BDAD94"/>
<path transform="translate(834,719)" d="m0 0 3 1z" fill="#BDAD94"/>
<path transform="translate(1512,1382)" d="m0 0" fill="#BDAD94"/>
<path transform="translate(1515,1378)" d="m0 0" fill="#BDAD94"/>
<path transform="translate(1745,896)" d="m0 0" fill="#FDFDFD"/>
<path transform="translate(1744,894)" d="m0 0" fill="#FDFDFD"/>
<path transform="translate(1743,892)" d="m0 0" fill="#FDFDFD"/>
<path transform="translate(781,743)" d="m0 0 2 1z" fill="#BDAD94"/>
<path transform="translate(783,742)" d="m0 0 2 1z" fill="#BDAD94"/>
<path transform="translate(785,741)" d="m0 0 2 1z" fill="#BDAD94"/>
<path transform="translate(787,740)" d="m0 0 2 1z" fill="#BDAD94"/>
<path transform="translate(789,739)" d="m0 0 2 1z" fill="#DDD5C8"/>
<path transform="translate(791,738)" d="m0 0 2 1z" fill="#DDD5C8"/>
<path transform="translate(793,737)" d="m0 0 2 1z" fill="#BDAD94"/>
<path transform="translate(795,736)" d="m0 0 2 1z" fill="#BDAD94"/>
<path transform="translate(804,732)" d="m0 0 2 1z" fill="#BDAD94"/>
<path transform="translate(806,731)" d="m0 0 2 1z" fill="#BDAD94"/>
<path transform="translate(808,730)" d="m0 0 2 1z" fill="#BDAD94"/>
<path transform="translate(813,728)" d="m0 0 2 1z" fill="#BDAD94"/>
<path transform="translate(820,725)" d="m0 0 2 1z" fill="#BDAD94"/>
<path transform="translate(822,724)" d="m0 0 2 1z" fill="#BDAD94"/>
<path transform="translate(825,723)" d="m0 0 2 1z" fill="#BDAD94"/>
<path transform="translate(827,722)" d="m0 0 2 1z" fill="#BDAD94"/>
<path transform="translate(832,720)" d="m0 0 2 1z" fill="#BDAD94"/>
<path transform="translate(837,718)" d="m0 0 2 1z" fill="#BDAD94"/>
<path transform="translate(842,716)" d="m0 0 2 1z" fill="#BDAD94"/>
<path transform="translate(847,714)" d="m0 0 2 1z" fill="#BDAD94"/>
<path transform="translate(878,702)" d="m0 0 2 1z" fill="#BDAD94"/>
<path transform="translate(667,663)" d="m0 0 2 1z" fill="#B5CEB5"/>
<path transform="translate(664,661)" d="m0 0 2 1z" fill="#B5CEB5"/>
<path transform="translate(662,660)" d="m0 0 2 1z" fill="#B5CEB5"/>
<path transform="translate(1469,1430)" d="m0 0" fill="#BDAD94"/>
<path transform="translate(1472,1427)" d="m0 0" fill="#BDAD94"/>
<path transform="translate(1473,1426)" d="m0 0" fill="#BDAD94"/>
<path transform="translate(1474,1425)" d="m0 0" fill="#BDAD94"/>
<path transform="translate(1475,1424)" d="m0 0" fill="#BDAD94"/>
<path transform="translate(1476,1423)" d="m0 0" fill="#BDAD94"/>
<path transform="translate(1477,1422)" d="m0 0" fill="#BDAD94"/>
<path transform="translate(1478,1421)" d="m0 0" fill="#BDAD94"/>
<path transform="translate(1479,1420)" d="m0 0" fill="#BDAD94"/>
<path transform="translate(1480,1419)" d="m0 0" fill="#BDAD94"/>
<path transform="translate(1481,1418)" d="m0 0" fill="#BDAD94"/>
<path transform="translate(1482,1417)" d="m0 0" fill="#BDAD94"/>
<path transform="translate(1483,1416)" d="m0 0" fill="#BDAD94"/>
<path transform="translate(1484,1415)" d="m0 0" fill="#BDAD94"/>
<path transform="translate(1485,1414)" d="m0 0" fill="#BDAD94"/>
<path transform="translate(1491,1407)" d="m0 0" fill="#BDAD94"/>
<path transform="translate(1492,1406)" d="m0 0" fill="#BDAD94"/>
<path transform="translate(1493,1405)" d="m0 0" fill="#9E9A8C"/>
<path transform="translate(1494,1404)" d="m0 0" fill="#9E9A8C"/>
<path transform="translate(1495,1403)" d="m0 0" fill="#BDAD94"/>
<path transform="translate(1496,1402)" d="m0 0" fill="#BDAD94"/>
<path transform="translate(1497,1401)" d="m0 0" fill="#BDAD94"/>
<path transform="translate(1501,1396)" d="m0 0" fill="#BDAD94"/>
<path transform="translate(1502,1395)" d="m0 0" fill="#BDAD94"/>
<path transform="translate(1503,1394)" d="m0 0" fill="#BDAD94"/>
<path transform="translate(1504,1393)" d="m0 0" fill="#BDAD94"/>
<path transform="translate(1505,1391)" d="m0 0" fill="#BDAD94"/>
<path transform="translate(1506,1390)" d="m0 0" fill="#BDAD94"/>
<path transform="translate(1507,1389)" d="m0 0" fill="#BDAD94"/>
<path transform="translate(1508,1388)" d="m0 0" fill="#BDAD94"/>
<path transform="translate(1509,1386)" d="m0 0" fill="#BDAD94"/>
<path transform="translate(1510,1385)" d="m0 0" fill="#BDAD94"/>
<path transform="translate(1511,1384)" d="m0 0" fill="#BDAD94"/>
<path transform="translate(1513,1381)" d="m0 0" fill="#BDAD94"/>
<path transform="translate(1514,1380)" d="m0 0" fill="#BDAD94"/>
<path transform="translate(1516,1377)" d="m0 0" fill="#BDAD94"/>
<path transform="translate(1517,1376)" d="m0 0" fill="#BDAD94"/>
<path transform="translate(1518,1375)" d="m0 0" fill="#BDAD94"/>
<path transform="translate(1519,1373)" d="m0 0" fill="#BDAD94"/>
<path transform="translate(1520,1372)" d="m0 0" fill="#BDAD94"/>
<path transform="translate(1521,1371)" d="m0 0" fill="#BDAD94"/>
<path transform="translate(1522,1369)" d="m0 0" fill="#BDAD94"/>
<path transform="translate(1523,1368)" d="m0 0" fill="#BDAD94"/>
<path transform="translate(1526,1363)" d="m0 0" fill="#BDAD94"/>
<path transform="translate(1742,891)" d="m0 0" fill="#FDFDFD"/>
<path transform="translate(777,745)" d="m0 0" fill="#BDAD94"/>
<path transform="translate(290,745)" d="m0 0" fill="#9E9A8C"/>
<path transform="translate(779,744)" d="m0 0" fill="#BDAD94"/>
<path transform="translate(291,744)" d="m0 0" fill="#9E9A8C"/>
<path transform="translate(350,737)" d="m0 0" fill="#B5CEB5"/>
<path transform="translate(830,721)" d="m0 0" fill="#BDAD94"/>
<path transform="translate(840,717)" d="m0 0" fill="#BDAD94"/>
<path transform="translate(845,715)" d="m0 0" fill="#BDAD94"/>
<path transform="translate(850,713)" d="m0 0" fill="#BDAD94"/>
<path transform="translate(853,712)" d="m0 0" fill="#FDFDFD"/>
<path transform="translate(855,711)" d="m0 0" fill="#BDAD94"/>
<path transform="translate(861,709)" d="m0 0" fill="#BDAD94"/>
<path transform="translate(866,707)" d="m0 0" fill="#FDFDFD"/>
<path transform="translate(871,705)" d="m0 0" fill="#FDFDFD"/>
<path transform="translate(873,704)" d="m0 0" fill="#BDAD94"/>
<path transform="translate(876,703)" d="m0 0" fill="#BDAD94"/>
<path transform="translate(881,701)" d="m0 0" fill="#BDAD94"/>
<path transform="translate(883,700)" d="m0 0" fill="#BDAD94"/>
<path transform="translate(666,662)" d="m0 0" fill="#B5CEB5"/>
<path transform="translate(1269,573)" d="m0 0" fill="#B5CEB5"/>
</svg>
